Coordinates
version=1
nRows=18
nColumns=13
inDegrees=yes

Units are S.I. units (second, meters, Newtons, ...)
If the header above contains a line with 'inDegrees', this indicates whether rotational values are in degrees (yes) or radians (no).

endheader
time	bJoint_3	bJoint_4	seatpos	slocangle	plocangle	hipangle	kneeangle	footangle	lbackangle	uarmleft_out	uarmleft_trn	uarmleft_up
      2.96000000	      0.00000001	     -0.00000018	     -0.00297949	     -0.00000000	      0.00000000	     94.14788407	      3.75581800	      7.90370207	    -40.41448959	    104.70779077	    327.11157727	     92.69231729
      2.98000000	      0.00000001	     -0.00000018	     -0.00310767	      0.00000000	     -0.00000000	     93.90314337	      4.21057545	      8.11371881	    -39.58711961	    103.34148905	    327.43168426	     94.98851887
      3.00000000	      0.00000001	     -0.00000019	     -0.00339544	     -0.00000000	      0.00000000	     93.43253621	      5.08549983	      8.51803604	    -37.94895286	    101.93175450	    327.73589458	     97.60863825
      3.02000000	      0.00000001	     -0.00000019	     -0.00353864	     -0.00000000	      0.00000000	     93.22635911	      5.46900978	      8.69536888	    -36.34290657	     99.85841387	    326.90140268	    101.62952741
      3.04000000	      0.00000001	     -0.00000019	     -0.00359180	     -0.00000000	     -0.00000000	     93.15342014	      5.60471227	      8.75813241	    -34.81129621	     99.33802803	    325.06326259	    103.46464751
      3.06000000	      0.00000000	     -0.00000019	     -0.00424862	     -0.00000000	     -0.00000000	     92.36648126	      7.06975706	      9.43623832	    -33.20707739	     98.73732035	    323.43936067	    105.20408484
      3.08000000	      0.00000000	     -0.00000020	     -0.00499028	      0.00000000	      0.00000000	     91.64019048	      8.42342240	     10.06361288	    -31.60580449	     98.13233397	    321.42289535	    106.95569238
      3.10000000	      0.00000000	     -0.00000020	     -0.00724398	      0.00000000	      0.00000000	     89.93524980	     11.60676968	     11.54201948	    -30.03875108	     97.67037744	    319.54320283	    108.74419165
      3.12000000	      0.00000000	     -0.00000020	     -0.01010985	      0.00000000	      0.00000000	     88.28648328	     14.69263774	     12.97912102	    -28.47866807	     97.06935638	    317.59886017	    110.44874441
      3.14000000	      0.00000000	     -0.00000020	     -0.01311557	      0.00000000	      0.00000000	     86.86883816	     17.35162514	     14.22046330	    -26.82502871	     96.53131428	    315.41092381	    112.15011004
      3.16000000	      0.00000000	     -0.00000020	     -0.01816085	     -0.00000000	      0.00000000	     84.88641631	     21.07856454	     15.96498086	    -25.28765813	     95.94899324	    313.43721168	    113.79695938
      3.18000000	      0.00000000	     -0.00000020	     -0.02307170	     -0.00000000	      0.00000000	     83.24847718	     24.16533308	     17.41381026	    -23.66765879	     95.35416326	    311.40403575	    115.46315071
      3.20000000	      0.00000000	     -0.00000020	     -0.02913586	     -0.00000000	      0.00000000	     81.47806202	     27.50921273	     18.98727476	    -22.15450749	     94.89286350	    309.21663253	    116.98583982
      3.22000000	      0.00000000	     -0.00000020	     -0.03605990	     -0.00000000	      0.00000000	     79.68948517	     30.89515282	     20.58463799	    -20.55873237	     94.41341924	    306.95705393	    118.54089871
      3.24000000	      0.00000000	     -0.00000020	     -0.04319339	     -0.00000000	      0.00000000	     78.03160491	     34.04056415	     22.07216906	    -18.96066936	     93.97298590	    304.68480700	    120.02191743
      3.26000000	      0.00000000	     -0.00000020	     -0.05212066	     -0.00000000	      0.00000000	     76.15025015	     37.61793976	     23.76818991	    -17.46166346	     93.49882150	    302.24252203	    121.58326624
      3.28000000	      0.00000000	     -0.00000020	     -0.06115928	     -0.00000000	      0.00000000	     74.41087714	     40.93286391	     25.34374104	    -15.89530321	     92.96935661	    299.91507009	    123.11406860
      3.30000000	      0.00000000	     -0.00000020	     -0.07015002	     -0.00000000	      0.00000000	     72.80871031	     43.99270520	     26.80141551	    -14.29816392	     92.62480591	    297.26494678	    124.48341118
